<svg width="20" height="20" viewBox="0 0 20 20" fill="none" xmlns="http://www.w3.org/2000/svg">
<path d="M10.0003 19.3332C9.62255 19.3332 9.3061 19.2052 9.05099 18.9492C8.79499 18.6941 8.66699 18.3776 8.66699 17.9998V11.3332H2.00033C1.62255 11.3332 1.30566 11.2052 1.04966 10.9492C0.794548 10.6941 0.666992 10.3776 0.666992 9.99984C0.666992 9.62206 0.794548 9.30517 1.04966 9.04917C1.30566 8.79406 1.62255 8.6665 2.00033 8.6665H8.66699V1.99984C8.66699 1.62206 8.79499 1.30517 9.05099 1.04917C9.3061 0.79406 9.62255 0.666504 10.0003 0.666504C10.3781 0.666504 10.695 0.79406 10.951 1.04917C11.2061 1.30517 11.3337 1.62206 11.3337 1.99984V8.6665H18.0003C18.3781 8.6665 18.6945 8.79406 18.9497 9.04917C19.2057 9.30517 19.3337 9.62206 19.3337 9.99984C19.3337 10.3776 19.2057 10.6941 18.9497 10.9492C18.6945 11.2052 18.3781 11.3332 18.0003 11.3332H11.3337V17.9998C11.3337 18.3776 11.2061 18.6941 10.951 18.9492C10.695 19.2052 10.3781 19.3332 10.0003 19.3332Z" fill="#1C1B1F"/>
</svg>
