<svg width="48" height="48" viewBox="0 0 48 48" fill="none" xmlns="http://www.w3.org/2000/svg">
<rect width="48" height="48" rx="8" fill="#FFDCC3"/>
<path d="M16 16.9412C16 16.4214 16.4214 16 16.9412 16H31.0588C31.5786 16 32 16.4214 32 16.9412C32 17.461 31.5786 17.8824 31.0588 17.8824H16.9412C16.4214 17.8824 16 17.461 16 16.9412ZM16 31.0588C16 30.539 16.4214 30.1176 16.9412 30.1176H27.5033C28.0231 30.1176 28.4444 30.539 28.4444 31.0588C28.4444 31.5786 28.0231 32 27.5033 32H16.9412C16.4214 32 16 31.5786 16 31.0588ZM16 26.3529C16 25.8331 16.4214 25.4118 16.9412 25.4118H31.0588C31.5786 25.4118 32 25.8331 32 26.3529C32 26.8727 31.5786 27.2941 31.0588 27.2941H16.9412C16.4214 27.2941 16 26.8727 16 26.3529ZM16 21.6471C16 21.1273 16.4214 20.7059 16.9412 20.7059H27.5033C28.0231 20.7059 28.4444 21.1273 28.4444 21.6471C28.4444 22.1669 28.0231 22.5882 27.5033 22.5882H16.9412C16.4214 22.5882 16 22.1669 16 21.6471Z" fill="#DB893F"/>
</svg>
