<svg width="36" height="36" viewBox="0 0 36 36" fill="none" xmlns="http://www.w3.org/2000/svg">
<path d="M24.1706 13.9364C24.9986 13.1084 25.8206 11.1764 22.3706 13.5224C19.1478 15.7404 15.9032 17.9265 12.6371 20.0804C12.1398 20.3053 11.6021 20.4274 11.0564 20.4392C10.5107 20.4511 9.96827 20.3525 9.46163 20.1494C7.39163 19.5284 4.97513 18.7004 4.97513 18.7004C4.97513 18.7004 3.32513 17.6639 6.14963 16.5599C6.14963 16.5599 18.0911 11.6594 22.2326 9.93293C23.8196 9.24293 29.2031 7.03493 29.2031 7.03493C29.2031 7.03493 31.6886 6.06743 31.4816 8.41493C31.4126 9.38093 30.8606 12.7649 30.3086 16.4219C29.4791 21.5984 28.5821 27.2594 28.5821 27.2594C28.5821 27.2594 28.4441 28.8464 27.2711 29.1224C26.0155 29.1012 24.8022 28.6644 23.8211 27.8804C23.5451 27.6734 18.6446 24.5669 16.8491 23.0489C16.6665 22.9252 16.5181 22.7573 16.4178 22.5608C16.3175 22.3643 16.2685 22.1457 16.2754 21.9252C16.2822 21.7047 16.3448 21.4895 16.4572 21.2997C16.5696 21.1098 16.7281 20.9515 16.9181 20.8394C19.3808 18.5863 21.7987 16.2849 24.1706 13.9364Z" fill="#063231"/>
</svg>
