<svg width="24" height="24" viewBox="0 0 24 24" fill="none" xmlns="http://www.w3.org/2000/svg">
<path d="M16.1144 9.29103C16.6664 8.73903 17.2144 7.45103 14.9144 9.01503C12.7659 10.4937 10.6028 11.9511 8.42541 13.387C8.09385 13.537 7.7354 13.6183 7.3716 13.6262C7.00781 13.6341 6.64617 13.5684 6.30841 13.433C4.92841 13.019 3.31741 12.467 3.31741 12.467C3.31741 12.467 2.21741 11.776 4.10041 11.04C4.10041 11.04 12.0614 7.77303 14.8224 6.62203C15.8804 6.16203 19.4694 4.69003 19.4694 4.69003C19.4694 4.69003 21.1264 4.04503 20.9884 5.61003C20.9424 6.25403 20.5744 8.51003 20.2064 10.948C19.6534 14.399 19.0554 18.173 19.0554 18.173C19.0554 18.173 18.9634 19.231 18.1814 19.415C17.3443 19.4009 16.5355 19.1097 15.8814 18.587C15.6974 18.449 12.4304 16.378 11.2334 15.366C11.1116 15.2835 11.0127 15.1716 10.9458 15.0406C10.879 14.9096 10.8463 14.7639 10.8509 14.6169C10.8555 14.4699 10.8972 14.3264 10.9721 14.1999C11.047 14.0733 11.1527 13.9678 11.2794 13.893C12.9212 12.391 14.5331 10.8567 16.1144 9.29103V9.29103Z" fill="#063231"/>
</svg>
