<svg width="20" height="20" viewBox="0 0 20 20" fill="none" xmlns="http://www.w3.org/2000/svg">
<path d="M13.841 0.833496H6.15933C2.82266 0.833496 0.833496 2.82266 0.833496 6.15933V13.8318C0.833496 17.1777 2.82266 19.1668 6.15933 19.1668H13.8318C17.1685 19.1668 19.1577 17.1777 19.1577 13.841V6.15933C19.1668 2.82266 17.1777 0.833496 13.841 0.833496ZM14.3818 7.89183L9.18433 13.0893C9.056 13.2177 8.88183 13.291 8.6985 13.291C8.51516 13.291 8.341 13.2177 8.21266 13.0893L5.6185 10.4952C5.35266 10.2293 5.35266 9.78933 5.6185 9.5235C5.88433 9.25766 6.32433 9.25766 6.59016 9.5235L8.6985 11.6318L13.4102 6.92016C13.676 6.65433 14.116 6.65433 14.3818 6.92016C14.6477 7.186 14.6477 7.61683 14.3818 7.89183Z" fill="#008583"/>
</svg>
