<svg width="80" height="80" viewBox="0 0 80 80" fill="none" xmlns="http://www.w3.org/2000/svg">
<path d="M0 60V4C0 2.86667 0.384 1.916 1.152 1.148C1.91733 0.382666 2.86667 0 4 0H56C57.1333 0 58.0827 0.382666 58.848 1.148C59.616 1.916 60 2.86667 60 4V40C60 41.1333 59.616 42.0827 58.848 42.848C58.0827 43.616 57.1333 44 56 44H16L0 60ZM20 64C18.8667 64 17.916 63.616 17.148 62.848C16.3827 62.0827 16 61.1333 16 60V52H68V16H76C77.1333 16 78.0827 16.3827 78.848 17.148C79.616 17.916 80 18.8667 80 20V80L64 64H20ZM52 8H8V40.7L12.7 36H52V8Z" fill="#063231"/>
</svg>
