<svg width="24" height="24" viewBox="0 0 24 24" fill="none" xmlns="http://www.w3.org/2000/svg">
<mask id="mask0_1422_1394" style="mask-type:alpha" maskUnits="userSpaceOnUse" x="0" y="0" width="24" height="24">
<rect width="24" height="24" fill="#D9D9D9"/>
</mask>
<g mask="url(#mask0_1422_1394)">
<path d="M9.5 14H13.5C13.7833 14 14.0208 13.9042 14.2125 13.7125C14.4042 13.5208 14.5 13.2833 14.5 13V12.25L16.5 13.5V8.5L14.5 9.75V9C14.5 8.71667 14.4042 8.47917 14.2125 8.2875C14.0208 8.09583 13.7833 8 13.5 8H9.5C9.21667 8 8.97917 8.09583 8.7875 8.2875C8.59583 8.47917 8.5 8.71667 8.5 9V13C8.5 13.2833 8.59583 13.5208 8.7875 13.7125C8.97917 13.9042 9.21667 14 9.5 14ZM12 23V19.5C10.7833 19.5 9.62917 19.2708 8.5375 18.8125C7.44583 18.3542 6.49167 17.7375 5.675 16.9625C4.85833 16.1875 4.20833 15.2875 3.725 14.2625C3.24167 13.2375 3 12.15 3 11C3 9.75 3.2375 8.57917 3.7125 7.4875C4.1875 6.39583 4.82917 5.44167 5.6375 4.625C6.44583 3.80833 7.39583 3.16667 8.4875 2.7C9.57917 2.23333 10.75 2 12 2C13.25 2 14.4208 2.23333 15.5125 2.7C16.6042 3.16667 17.5583 3.80833 18.375 4.625C19.1917 5.44167 19.8333 6.39583 20.3 7.4875C20.7667 8.57917 21 9.75 21 11C21 13.35 20.2167 15.5708 18.65 17.6625C17.0833 19.7542 14.8667 21.5333 12 23ZM14 19.4C15.6 18.2 16.8333 16.8708 17.7 15.4125C18.5667 13.9542 19 12.4833 19 11C19 9.06667 18.3167 7.41667 16.95 6.05C15.5833 4.68333 13.9333 4 12 4C10.0667 4 8.41667 4.68333 7.05 6.05C5.68333 7.41667 5 9.06667 5 11C5 12.7333 5.7 14.25 7.1 15.55C8.5 16.85 10.1333 17.5 12 17.5H14V19.4Z" fill="#444747"/>
</g>
</svg>
