<svg width="1080" height="280" viewBox="0 0 1080 280" fill="none" xmlns="http://www.w3.org/2000/svg">
<g clip-path="url(#clip0_1712_21073)">
<rect width="1296" height="318" rx="20" fill="#006A68"/>
<mask id="mask0_1712_21073" style="mask-type:alpha" maskUnits="userSpaceOnUse" x="0" y="0" width="1296" height="318">
<rect width="1296" height="318" rx="20" fill="#2563EB"/>
</mask>
<g mask="url(#mask0_1712_21073)">
<path opacity="0.2" d="M128.118 -83.7154C155.231 -33.1708 127.277 35.889 63.6342 70.0281C-0.00809736 104.167 -73.0047 89.26 -100.118 38.7154C-127.231 -11.8292 -99.2763 -80.889 -35.6339 -115.028C28.0084 -149.167 101.005 -134.26 128.118 -83.7154Z" stroke="#F1F5F9" stroke-width="7"/>
<path d="M1204.5 321.5C1204.5 382.199 1144.5 432.5 1069 432.5C993.5 432.5 933.5 382.199 933.5 321.5C933.5 260.801 993.5 210.5 1069 210.5C1144.5 210.5 1204.5 260.801 1204.5 321.5Z" stroke="white" stroke-width="7"/>
</g>
<g opacity="0.2">
<path d="M958.988 -5.12805L783.988 -5.12805C767.008 -5.12805 750.261 -0.977015 735.074 6.99632C719.886 14.9697 706.676 26.5463 696.488 40.8094C686.3 26.5463 673.089 14.9697 657.902 6.99632C642.714 -0.977015 625.968 -5.12805 608.988 -5.12805L433.988 -5.12805C422.385 -5.12805 411.257 -0.288224 403.052 8.32673C394.847 16.9417 390.238 28.6261 390.238 40.8094L390.238 408.309C390.238 420.493 394.847 432.177 403.052 440.792C411.257 449.407 422.385 454.247 433.988 454.247L608.988 454.247C626.393 454.247 643.085 461.507 655.392 474.429C667.699 487.352 674.613 504.878 674.613 523.153C674.613 529.245 676.917 535.087 681.02 539.395C685.122 543.702 690.686 546.122 696.488 546.122C702.289 546.122 707.853 543.702 711.956 539.395C716.058 535.087 718.363 529.245 718.363 523.153C718.363 504.878 725.277 487.352 737.584 474.429C749.891 461.507 766.583 454.247 783.988 454.247L958.988 454.247C970.591 454.247 981.719 449.407 989.924 440.792C998.128 432.177 1002.74 420.493 1002.74 408.309L1002.74 40.8094C1002.74 28.6261 998.128 16.9417 989.924 8.32673C981.719 -0.288224 970.591 -5.12805 958.988 -5.12805ZM608.988 408.309L433.988 408.309L433.988 40.8094L608.988 40.8094C626.393 40.8094 643.085 48.0692 655.392 60.9916C667.699 73.914 674.613 91.4406 674.613 109.716L674.613 431.278C655.698 416.333 632.659 408.27 608.988 408.309ZM958.988 408.309L783.988 408.309C760.316 408.27 737.277 416.333 718.363 431.278L718.363 109.716C718.363 91.4406 725.277 73.914 737.584 60.9916C749.891 48.0692 766.583 40.8094 783.988 40.8094L958.988 40.8094L958.988 408.309ZM783.988 109.716L893.363 109.716C899.164 109.716 904.728 112.136 908.831 116.443C912.933 120.751 915.238 126.593 915.238 132.684C915.238 138.776 912.933 144.618 908.831 148.926C904.728 153.233 899.164 155.653 893.363 155.653L783.988 155.653C778.186 155.653 772.622 153.233 768.52 148.926C764.417 144.618 762.113 138.776 762.113 132.684C762.113 126.593 764.417 120.751 768.52 116.443C772.622 112.136 778.186 109.716 783.988 109.716ZM915.238 224.559C915.238 230.651 912.933 236.493 908.831 240.801C904.728 245.108 899.164 247.528 893.363 247.528L783.988 247.528C778.186 247.528 772.622 245.108 768.52 240.801C764.417 236.493 762.113 230.651 762.113 224.559C762.113 218.468 764.417 212.626 768.52 208.318C772.622 204.011 778.186 201.591 783.988 201.591L893.363 201.591C899.164 201.591 904.728 204.011 908.831 208.318C912.933 212.626 915.238 218.468 915.238 224.559ZM915.238 316.434C915.238 322.526 912.933 328.368 908.831 332.676C904.728 336.983 899.164 339.403 893.363 339.403H783.988C778.186 339.403 772.622 336.983 768.52 332.676C764.417 328.368 762.113 322.526 762.113 316.434C762.113 310.343 764.417 304.501 768.52 300.193C772.622 295.886 778.186 293.466 783.988 293.466H893.363C899.164 293.466 904.728 295.886 908.831 300.193C912.933 304.501 915.238 310.343 915.238 316.434Z" fill="white"/>
</g>
</g>
<defs>
<clipPath id="clip0_1712_21073">
<rect width="1080" height="280" rx="16" fill="white"/>
</clipPath>
</defs>
</svg>
