<svg width="20" height="20" viewBox="0 0 20 20" fill="none" xmlns="http://www.w3.org/2000/svg">
<mask id="mask0_1969_10183" style="mask-type:alpha" maskUnits="userSpaceOnUse" x="0" y="0" width="20" height="20">
<rect width="20" height="20" fill="#D9D9D9"/>
</mask>
<g mask="url(#mask0_1969_10183)">
<path d="M11.083 14.3957C10.9163 14.229 10.8363 14.0276 10.843 13.7915C10.8502 13.5554 10.9372 13.354 11.1038 13.1873L13.458 10.8332H4.16634C3.93023 10.8332 3.73217 10.7532 3.57217 10.5932C3.41273 10.4337 3.33301 10.2359 3.33301 9.99984C3.33301 9.76373 3.41273 9.56567 3.57217 9.40567C3.73217 9.24623 3.93023 9.1665 4.16634 9.1665H13.458L11.083 6.7915C10.9163 6.62484 10.833 6.42678 10.833 6.19734C10.833 5.96845 10.9163 5.77067 11.083 5.604C11.2497 5.43734 11.4477 5.354 11.6772 5.354C11.9061 5.354 12.1038 5.43734 12.2705 5.604L16.083 9.4165C16.1663 9.49984 16.2255 9.59011 16.2605 9.68734C16.295 9.78456 16.3122 9.88873 16.3122 9.99984C16.3122 10.1109 16.295 10.2151 16.2605 10.3123C16.2255 10.4096 16.1663 10.4998 16.083 10.5832L12.2497 14.4165C12.0969 14.5693 11.9061 14.6457 11.6772 14.6457C11.4477 14.6457 11.2497 14.5623 11.083 14.3957Z" fill="#008583"/>
</g>
</svg>
