<svg width="128" height="128" viewBox="0 0 128 128" fill="none" xmlns="http://www.w3.org/2000/svg">
<path d="M109.334 89.334H97.334V77.334C97.334 75.1473 95.5207 73.334 93.334 73.334C91.1473 73.334 89.334 75.1473 89.334 77.334V89.334H77.334C75.1473 89.334 73.334 91.1473 73.334 93.334C73.334 95.5207 75.1473 97.334 77.334 97.334H89.334V109.334C89.334 111.521 91.1473 113.334 93.334 113.334C95.5207 113.334 97.334 111.521 97.334 109.334V97.334H109.334C111.521 97.334 113.334 95.5207 113.334 93.334C113.334 91.1473 111.521 89.334 109.334 89.334Z" fill="white"/>
<path d="M117.333 45.4425V21.2292C117.333 13.7092 113.92 10.6692 105.44 10.6692L83.8928 10.6692C75.4128 10.6692 71.9995 13.7092 71.9995 21.2292V45.3892C71.9995 52.9625 75.4128 55.9492 83.8928 55.9492H105.44C113.92 56.0025 117.333 52.9625 117.333 45.4425Z" fill="white"/>
<path d="M55.9998 45.4424V21.2291C55.9998 13.7091 52.5865 10.6691 44.1065 10.6691L22.5598 10.6691C14.0798 10.6691 10.6665 13.7091 10.6665 21.2291L10.6665 45.3891C10.6665 52.9624 14.0798 55.9491 22.5598 55.9491H44.1065C52.5865 56.0024 55.9998 52.9624 55.9998 45.4424Z" fill="white"/>
<path d="M55.9998 105.445V83.8981C55.9998 75.4181 52.5865 72.0048 44.1065 72.0048H22.5598C14.0798 72.0048 10.6665 75.4181 10.6665 83.8981L10.6665 105.445C10.6665 113.925 14.0798 117.338 22.5598 117.338H44.1065C52.5865 117.338 55.9998 113.925 55.9998 105.445Z" fill="white"/>
</svg>
