<svg width="22" height="22" viewBox="0 0 22 22" fill="none" xmlns="http://www.w3.org/2000/svg">
<path d="M5.7002 18.3L2.9502 17.7C2.7002 17.65 2.5002 17.5208 2.3502 17.3125C2.2002 17.1041 2.14186 16.875 2.1752 16.625L2.4502 13.8L0.575195 11.65C0.408529 11.4666 0.325195 11.25 0.325195 11C0.325195 10.75 0.408529 10.5333 0.575195 10.35L2.4502 8.19996L2.1752 5.37496C2.14186 5.12496 2.2002 4.8958 2.3502 4.68746C2.5002 4.47913 2.7002 4.34996 2.9502 4.29996L5.7002 3.69996L7.1502 1.24996C7.28353 1.0333 7.46686 0.891629 7.7002 0.824962C7.93353 0.758295 8.16686 0.766629 8.4002 0.849962L11.0002 1.94996L13.6002 0.849962C13.8335 0.766629 14.0669 0.758295 14.3002 0.824962C14.5335 0.891629 14.7169 1.0333 14.8502 1.24996L16.3002 3.69996L19.0502 4.29996C19.3002 4.34996 19.5002 4.47913 19.6502 4.68746C19.8002 4.8958 19.8585 5.12496 19.8252 5.37496L19.5502 8.19996L21.4252 10.35C21.5919 10.5333 21.6752 10.75 21.6752 11C21.6752 11.25 21.5919 11.4666 21.4252 11.65L19.5502 13.8L19.8252 16.625C19.8585 16.875 19.8002 17.1041 19.6502 17.3125C19.5002 17.5208 19.3002 17.65 19.0502 17.7L16.3002 18.3L14.8502 20.75C14.7169 20.9666 14.5335 21.1083 14.3002 21.175C14.0669 21.2416 13.8335 21.2333 13.6002 21.15L11.0002 20.05L8.4002 21.15C8.16686 21.2333 7.93353 21.2416 7.7002 21.175C7.46686 21.1083 7.28353 20.9666 7.1502 20.75L5.7002 18.3ZM9.2502 13.85C9.43353 14.0333 9.66686 14.125 9.9502 14.125C10.2335 14.125 10.4669 14.0333 10.6502 13.85L14.9002 9.59996C15.1002 9.39996 15.2002 9.16246 15.2002 8.88746C15.2002 8.61246 15.1002 8.37496 14.9002 8.17496C14.7002 7.97496 14.4627 7.87496 14.1877 7.87496C13.9127 7.87496 13.6752 7.97496 13.4752 8.17496L9.9502 11.7L8.5002 10.275C8.3002 10.0916 8.0627 10.0041 7.7877 10.0125C7.5127 10.0208 7.28353 10.1166 7.1002 10.3C6.91686 10.4833 6.8252 10.7166 6.8252 11C6.8252 11.2833 6.91686 11.5166 7.1002 11.7L9.2502 13.85Z" fill="#27AE60"/>
</svg>
