<svg width="20" height="20" viewBox="0 0 20 20" fill="none" xmlns="http://www.w3.org/2000/svg">
<g id="Arrows">
<mask id="mask0_2076_467" style="mask-type:alpha" maskUnits="userSpaceOnUse" x="0" y="0" width="20" height="20">
<rect id="Bounding box" width="20" height="20" fill="#D9D9D9"/>
</mask>
<g mask="url(#mask0_2076_467)">
<path id="file_download" d="M10.0002 12.9793C9.88905 12.9793 9.78488 12.9618 9.68766 12.9268C9.59044 12.8924 9.50016 12.8335 9.41683 12.7502L6.41683 9.75016C6.26405 9.59738 6.18766 9.40294 6.18766 9.16683C6.18766 8.93072 6.26405 8.73627 6.41683 8.5835C6.56961 8.43072 6.76738 8.35072 7.01016 8.3435C7.2535 8.33683 7.45155 8.40988 7.60433 8.56266L9.16683 10.1252V4.16683C9.16683 3.93072 9.24683 3.73266 9.40683 3.57266C9.56627 3.41322 9.76405 3.3335 10.0002 3.3335C10.2363 3.3335 10.4343 3.41322 10.5943 3.57266C10.7538 3.73266 10.8335 3.93072 10.8335 4.16683V10.1252L12.396 8.56266C12.5488 8.40988 12.7468 8.33683 12.9902 8.3435C13.2329 8.35072 13.4307 8.43072 13.5835 8.5835C13.7363 8.73627 13.8127 8.93072 13.8127 9.16683C13.8127 9.40294 13.7363 9.59738 13.5835 9.75016L10.5835 12.7502C10.5002 12.8335 10.4099 12.8924 10.3127 12.9268C10.2154 12.9618 10.1113 12.9793 10.0002 12.9793ZM5.00016 16.6668C4.54183 16.6668 4.14961 16.5038 3.8235 16.1777C3.49683 15.851 3.3335 15.4585 3.3335 15.0002V13.3335C3.3335 13.0974 3.41322 12.8993 3.57266 12.7393C3.73266 12.5799 3.93072 12.5002 4.16683 12.5002C4.40294 12.5002 4.601 12.5799 4.761 12.7393C4.92044 12.8993 5.00016 13.0974 5.00016 13.3335V15.0002H15.0002V13.3335C15.0002 13.0974 15.0802 12.8993 15.2402 12.7393C15.3996 12.5799 15.5974 12.5002 15.8335 12.5002C16.0696 12.5002 16.2674 12.5799 16.4268 12.7393C16.5868 12.8993 16.6668 13.0974 16.6668 13.3335V15.0002C16.6668 15.4585 16.5038 15.851 16.1777 16.1777C15.851 16.5038 15.4585 16.6668 15.0002 16.6668H5.00016Z" fill="white"/>
</g>
</g>
</svg>
