<svg width="32" height="32" viewBox="0 0 32 32" fill="none" xmlns="http://www.w3.org/2000/svg">
<rect width="32" height="32" rx="16" fill="#006A68"/>
<g clip-path="url(#clip0_1633_3549)">
<path d="M22.146 16.3475L13.3135 22.2358C13.2508 22.2776 13.1779 22.3016 13.1026 22.3052C13.0273 22.3087 12.9525 22.2918 12.886 22.2562C12.8196 22.2207 12.764 22.1677 12.7253 22.1032C12.6865 22.0385 12.6661 21.9645 12.666 21.8892V10.1125C12.6661 10.0371 12.6865 9.96318 12.7253 9.89853C12.764 9.83388 12.8196 9.78096 12.886 9.74538C12.9525 9.70981 13.0273 9.69291 13.1026 9.69652C13.1779 9.70012 13.2508 9.72407 13.3135 9.76583L22.146 15.6542C22.2031 15.6922 22.2498 15.7437 22.2823 15.8042C22.3146 15.8647 22.3315 15.9322 22.3315 16.0008C22.3315 16.0694 22.3146 16.1369 22.2823 16.1974C22.2498 16.2579 22.2031 16.3094 22.146 16.3475Z" fill="white"/>
</g>
<defs>
<clipPath id="clip0_1633_3549">
<rect width="20" height="20" fill="white" transform="translate(6 6.00024)"/>
</clipPath>
</defs>
</svg>
