<svg width="16" height="11" viewBox="0 0 16 11" fill="none" xmlns="http://www.w3.org/2000/svg">
<path d="M4.33335 8.66666C4.85558 8.66666 5.36402 8.72488 5.85869 8.84132C6.35291 8.95821 6.84446 9.13332 7.33335 9.36666V2.79999C6.8778 2.53332 6.39446 2.33332 5.88335 2.19999C5.37224 2.06666 4.85558 1.99999 4.33335 1.99999C3.93335 1.99999 3.53624 2.03888 3.14202 2.11666C2.74735 2.19443 2.36669 2.3111 2.00002 2.46666V9.06666C2.38891 8.93332 2.77513 8.83332 3.15869 8.76666C3.5418 8.69999 3.93335 8.66666 4.33335 8.66666ZM8.66669 9.36666C9.15558 9.13332 9.64735 8.95821 10.142 8.84132C10.6362 8.72488 11.1445 8.66666 11.6667 8.66666C12.0667 8.66666 12.4585 8.69999 12.842 8.76666C13.2251 8.83332 13.6111 8.93332 14 9.06666V2.46666C13.6334 2.3111 13.2529 2.19443 12.8587 2.11666C12.464 2.03888 12.0667 1.99999 11.6667 1.99999C11.1445 1.99999 10.6278 2.06666 10.1167 2.19999C9.60558 2.33332 9.12224 2.53332 8.66669 2.79999V9.36666ZM8.00002 10.9833C7.84446 10.9833 7.69735 10.964 7.55869 10.9253C7.41958 10.8862 7.28891 10.8333 7.16669 10.7667C6.73335 10.5111 6.2778 10.3195 5.80002 10.192C5.32224 10.064 4.83335 9.99999 4.33335 9.99999C3.86669 9.99999 3.40846 10.0611 2.95869 10.1833C2.50846 10.3055 2.0778 10.4778 1.66669 10.7C1.43335 10.8222 1.20846 10.8167 0.99202 10.6833C0.775131 10.55 0.666687 10.3555 0.666687 10.1V2.06666C0.666687 1.94443 0.697354 1.82777 0.758687 1.71666C0.819576 1.60555 0.911131 1.52221 1.03335 1.46666C1.54446 1.19999 2.0778 0.99999 2.63335 0.866657C3.18891 0.733323 3.75558 0.666656 4.33335 0.666656C4.9778 0.666656 5.60846 0.74999 6.22535 0.916656C6.8418 1.08332 7.43335 1.33332 8.00002 1.66666C8.56669 1.33332 9.15846 1.08332 9.77535 0.916656C10.3918 0.74999 11.0222 0.666656 11.6667 0.666656C12.2445 0.666656 12.8111 0.733323 13.3667 0.866657C13.9222 0.99999 14.4556 1.19999 14.9667 1.46666C15.0889 1.52221 15.1807 1.60555 15.242 1.71666C15.3029 1.82777 15.3334 1.94443 15.3334 2.06666V10.1C15.3334 10.3555 15.2251 10.55 15.0087 10.6833C14.7918 10.8167 14.5667 10.8222 14.3334 10.7C13.9222 10.4778 13.4916 10.3055 13.0414 10.1833C12.5916 10.0611 12.1334 9.99999 11.6667 9.99999C11.1667 9.99999 10.6778 10.064 10.2 10.192C9.72224 10.3195 9.26669 10.5111 8.83335 10.7667C8.71113 10.8333 8.58069 10.8862 8.44202 10.9253C8.30291 10.964 8.15558 10.9833 8.00002 10.9833Z" fill="#063231"/>
</svg>
