<svg width="24" height="24" viewBox="0 0 24 24" fill="none" xmlns="http://www.w3.org/2000/svg">
<g id="Rating">
<mask id="mask0_1741_28307" style="mask-type:alpha" maskUnits="userSpaceOnUse" x="0" y="0" width="24" height="24">
<rect id="Text input" width="24" height="24" fill="#D9D9D9"/>
</mask>
<g mask="url(#mask0_1741_28307)">
<path id="star" d="M12 19.4307L6.66801 22.794C6.43247 22.951 6.18621 23.0182 5.92924 22.9958C5.67228 22.9734 5.44744 22.8837 5.25472 22.7267C5.06199 22.5698 4.9121 22.3736 4.80503 22.1382C4.69796 21.9027 4.67655 21.6393 4.74079 21.3478L6.15409 14.9912L1.43239 10.7199C1.21825 10.5181 1.08442 10.2882 1.03088 10.0304C0.977351 9.77253 0.993411 9.52029 1.07907 9.27365C1.16472 9.02701 1.2932 8.82521 1.46451 8.66826C1.63582 8.51131 1.87137 8.41041 2.17116 8.36556L8.40252 7.79381L10.8115 1.80719C10.9186 1.53812 11.0846 1.33633 11.3094 1.2018C11.5343 1.06727 11.7645 1 12 1C12.2355 1 12.4657 1.06727 12.6906 1.2018C12.9154 1.33633 13.0814 1.53812 13.1885 1.80719L15.5975 7.79381L21.8288 8.36556C22.1286 8.41041 22.3642 8.51131 22.5355 8.66826C22.7068 8.82521 22.8353 9.02701 22.9209 9.27365C23.0066 9.52029 23.0226 9.77253 22.9691 10.0304C22.9156 10.2882 22.7817 10.5181 22.5676 10.7199L17.8459 14.9912L19.2592 21.3478C19.3235 21.6393 19.302 21.9027 19.195 22.1382C19.0879 22.3736 18.938 22.5698 18.7453 22.7267C18.5526 22.8837 18.3277 22.9734 18.0708 22.9958C17.8138 23.0182 17.5675 22.951 17.332 22.794L12 19.4307Z" fill="#F2C94C"/>
</g>
</g>
</svg>
