<svg xmlns="http://www.w3.org/2000/svg" xmlnsXlink="http://www.w3.org/1999/xlink" xmlnsSerif="http://www.serif.com/" width="100%" height="100%" viewBox="0 0 64 64" version="1.1" xml:space="preserve" style="fill-rule:evenodd;clip-rule:evenodd;stroke-linejoin:round;stroke-miterlimit:2;"><path d="M10,10L10,4C10,2.895 10.895,2 12,2L56,2C57.105,2 58,2.895 58,4L58,60C58,61.105 57.105,62 56,62L12,62C11.774,61.999 11.549,61.962 11.335,61.887C11.043,61.784 10.776,61.612 10.561,61.389C10.359,61.18 10.204,60.927 10.109,60.653C10.037,60.443 10.001,60.222 10,60L10,54L8,54C6.896,54 6,53.104 6,52C6,50.896 6.896,50 8,50L10,50L10,44L8,44C6.896,44 6,43.104 6,42C6,40.896 6.896,40 8,40L10,40L10,34L8,34C6.896,34 6,33.104 6,32C6,30.896 6.896,30 8,30L10,30L10,24L8,24C6.896,24 6,23.104 6,22C6,20.896 6.896,20 8,20L10,20L10,14L8,14C6.896,14 6,13.104 6,12C6,10.896 6.896,10 8,10L10,10ZM54,6L14,6L14,10L16,10C17.104,10 18,10.896 18,12C18,13.104 17.104,14 16,14L14,14L14,20L16,20C17.104,20 18,20.896 18,22C18,23.104 17.104,24 16,24L14,24L14,30L16,30C17.104,30 18,30.896 18,32C18,33.104 17.104,34 16,34L14,34L14,40L16,40C17.104,40 18,40.896 18,42C18,43.104 17.104,44 16,44L14,44L14,50L16,50C17.104,50 18,50.896 18,52C18,53.104 17.104,54 16,54L14,54L14,58L54,58L54,6Z"/><g transform="matrix(-0.351506,-0.351506,0.362694,-0.362694,26.744,61.7524)"><path d="M56.153,37.211L56.171,37.215C61.884,38.847 65.629,44.355 64.892,50.252C64.292,55.051 63.538,58.993 63.538,58.993C63.045,61.58 60.717,63.458 58,63.458L46,63.458C43.399,63.458 41.138,61.735 40.526,59.285L39.293,54.351C34.495,53.233 29.505,53.232 24.707,54.351L23.474,59.285C22.862,61.735 20.601,63.458 18,63.458L6,63.458C3.283,63.458 0.955,61.58 0.462,58.993C0.462,58.993 -0.292,55.051 -0.892,50.252C-1.629,44.355 2.116,38.847 7.829,37.215L7.847,37.211C23.633,32.703 40.367,32.703 56.153,37.211Z"/></g></svg>