<svg width="48" height="48" viewBox="0 0 48 48" fill="none" xmlns="http://www.w3.org/2000/svg">
<mask id="mask0_1853_1375" style="mask-type:alpha" maskUnits="userSpaceOnUse" x="0" y="0" width="48" height="48">
<rect width="48" height="48" fill="#D9D9D9"/>
</mask>
<g mask="url(#mask0_1853_1375)">
<path d="M24 38.8615L13.336 45.588C12.8649 45.9019 12.3724 46.0364 11.8585 45.9916C11.3446 45.9467 10.8949 45.7674 10.5094 45.4535C10.124 45.1396 9.8242 44.7472 9.61006 44.2763C9.39593 43.8055 9.3531 43.2786 9.48158 42.6956L12.3082 29.9824L2.86478 21.4397C2.43651 21.0361 2.16884 20.5765 2.06177 20.0608C1.9547 19.5451 1.98682 19.0406 2.15813 18.5473C2.32944 18.054 2.5864 17.6504 2.92902 17.3365C3.27164 17.0226 3.74274 16.8208 4.34232 16.7311L16.805 15.5876L21.6231 3.61437C21.8372 3.07625 22.1691 2.67265 22.6188 2.40359C23.0685 2.13453 23.5289 2 24 2C24.4711 2 24.9315 2.13453 25.3812 2.40359C25.8309 2.67265 26.1628 3.07625 26.3769 3.61437L31.195 15.5876L43.6577 16.7311C44.2573 16.8208 44.7284 17.0226 45.071 17.3365C45.4136 17.6504 45.6706 18.054 45.8419 18.5473C46.0132 19.0406 46.0453 19.5451 45.9382 20.0608C45.8312 20.5765 45.5635 21.0361 45.1352 21.4397L35.6918 29.9824L38.5184 42.6956C38.6469 43.2786 38.6041 43.8055 38.3899 44.2763C38.1758 44.7472 37.876 45.1396 37.4906 45.4535C37.1051 45.7674 36.6554 45.9467 36.1415 45.9916C35.6276 46.0364 35.1351 45.9019 34.664 45.588L24 38.8615Z" fill="#E0E3E2"/>
</g>
</svg>
