<svg width="24" height="24" viewBox="0 0 24 24" fill="none" xmlns="http://www.w3.org/2000/svg">
<g id="Status" clip-path="url(#clip0_1627_8503)">
<mask id="mask0_1627_8503" style="mask-type:alpha" maskUnits="userSpaceOnUse" x="0" y="0" width="24" height="24">
<rect id="Text input" width="24" height="24" fill="#D9D9D9"/>
</mask>
<g mask="url(#mask0_1627_8503)">
<path id="verified" d="M6.7002 19.2997L3.9502 18.6997C3.7002 18.6497 3.5002 18.5206 3.3502 18.3122C3.2002 18.1039 3.14186 17.8747 3.1752 17.6247L3.4502 14.7997L1.5752 12.6497C1.40853 12.4664 1.3252 12.2497 1.3252 11.9997C1.3252 11.7497 1.40853 11.5331 1.5752 11.3497L3.4502 9.19972L3.1752 6.37472C3.14186 6.12472 3.2002 5.89555 3.3502 5.68722C3.5002 5.47888 3.7002 5.34972 3.9502 5.29972L6.7002 4.69972L8.1502 2.24972C8.28353 2.03305 8.46686 1.89138 8.7002 1.82472C8.93353 1.75805 9.16686 1.76638 9.4002 1.84972L12.0002 2.94972L14.6002 1.84972C14.8335 1.76638 15.0669 1.75805 15.3002 1.82472C15.5335 1.89138 15.7169 2.03305 15.8502 2.24972L17.3002 4.69972L20.0502 5.29972C20.3002 5.34972 20.5002 5.47888 20.6502 5.68722C20.8002 5.89555 20.8585 6.12472 20.8252 6.37472L20.5502 9.19972L22.4252 11.3497C22.5919 11.5331 22.6752 11.7497 22.6752 11.9997C22.6752 12.2497 22.5919 12.4664 22.4252 12.6497L20.5502 14.7997L20.8252 17.6247C20.8585 17.8747 20.8002 18.1039 20.6502 18.3122C20.5002 18.5206 20.3002 18.6497 20.0502 18.6997L17.3002 19.2997L15.8502 21.7497C15.7169 21.9664 15.5335 22.1081 15.3002 22.1747C15.0669 22.2414 14.8335 22.2331 14.6002 22.1497L12.0002 21.0497L9.4002 22.1497C9.16686 22.2331 8.93353 22.2414 8.7002 22.1747C8.46686 22.1081 8.28353 21.9664 8.1502 21.7497L6.7002 19.2997ZM10.2502 14.8497C10.4335 15.0331 10.6669 15.1247 10.9502 15.1247C11.2335 15.1247 11.4669 15.0331 11.6502 14.8497L15.9002 10.5997C16.1002 10.3997 16.2002 10.1622 16.2002 9.88722C16.2002 9.61222 16.1002 9.37472 15.9002 9.17472C15.7002 8.97472 15.4627 8.87472 15.1877 8.87472C14.9127 8.87472 14.6752 8.97472 14.4752 9.17472L10.9502 12.6997L9.5002 11.2747C9.3002 11.0914 9.0627 11.0039 8.7877 11.0122C8.5127 11.0206 8.28353 11.1164 8.1002 11.2997C7.91686 11.4831 7.8252 11.7164 7.8252 11.9997C7.8252 12.2831 7.91686 12.5164 8.1002 12.6997L10.2502 14.8497Z" fill="#27AE60"/>
</g>
</g>
<defs>
<clipPath id="clip0_1627_8503">
<rect width="24" height="24" fill="white"/>
</clipPath>
</defs>
</svg>
