<svg width="40" height="40" viewBox="0 0 40 40" fill="none" xmlns="http://www.w3.org/2000/svg">
<rect width="40" height="40" rx="20" fill="white"/>
<mask id="mask0_1627_7571" style="mask-type:alpha" maskUnits="userSpaceOnUse" x="8" y="8" width="24" height="24">
<rect x="8" y="8" width="24" height="24" fill="#D9D9D9"/>
</mask>
<g mask="url(#mask0_1627_7571)">
<path d="M14 30C13.1667 30 12.4583 29.7083 11.875 29.125C11.2917 28.5416 11 27.8333 11 27V25C11 24.7166 11.0958 24.4791 11.2875 24.2875C11.4792 24.0958 11.7167 24 12 24H14V10.725C14 10.575 14.0667 10.4833 14.2 10.45C14.3333 10.4166 14.4667 10.4666 14.6 10.6L15.5 11.5L16.65 10.35C16.75 10.25 16.8667 10.2 17 10.2C17.1333 10.2 17.25 10.25 17.35 10.35L18.5 11.5L19.65 10.35C19.75 10.25 19.8667 10.2 20 10.2C20.1333 10.2 20.25 10.25 20.35 10.35L21.5 11.5L22.65 10.35C22.75 10.25 22.8667 10.2 23 10.2C23.1333 10.2 23.25 10.25 23.35 10.35L24.5 11.5L25.65 10.35C25.75 10.25 25.8667 10.2 26 10.2C26.1333 10.2 26.25 10.25 26.35 10.35L27.5 11.5L28.4 10.6C28.5333 10.4666 28.6667 10.4125 28.8 10.4375C28.9333 10.4625 29 10.5583 29 10.725V27C29 27.8333 28.7083 28.5416 28.125 29.125C27.5417 29.7083 26.8333 30 26 30H14ZM26 28C26.2833 28 26.5208 27.9041 26.7125 27.7125C26.9042 27.5208 27 27.2833 27 27V13H16V24H24C24.2833 24 24.5208 24.0958 24.7125 24.2875C24.9042 24.4791 25 24.7166 25 25V27C25 27.2833 25.0958 27.5208 25.2875 27.7125C25.4792 27.9041 25.7167 28 26 28ZM17.975 17C17.6917 17 17.4583 16.9041 17.275 16.7125C17.0917 16.5208 17 16.2833 17 16C17 15.7166 17.0958 15.4791 17.2875 15.2875C17.4792 15.0958 17.7167 15 18 15H22C22.2833 15 22.5208 15.0958 22.7125 15.2875C22.9042 15.4791 23 15.7166 23 16C23 16.2833 22.9042 16.5208 22.7125 16.7125C22.5208 16.9041 22.2833 17 22 17H17.975ZM17.975 20C17.6917 20 17.4583 19.9041 17.275 19.7125C17.0917 19.5208 17 19.2833 17 19C17 18.7166 17.0958 18.4791 17.2875 18.2875C17.4792 18.0958 17.7167 18 18 18H22C22.2833 18 22.5208 18.0958 22.7125 18.2875C22.9042 18.4791 23 18.7166 23 19C23 19.2833 22.9042 19.5208 22.7125 19.7125C22.5208 19.9041 22.2833 20 22 20H17.975ZM25 17C24.7167 17 24.4792 16.9041 24.2875 16.7125C24.0958 16.5208 24 16.2833 24 16C24 15.7166 24.0958 15.4791 24.2875 15.2875C24.4792 15.0958 24.7167 15 25 15C25.2833 15 25.5208 15.0958 25.7125 15.2875C25.9042 15.4791 26 15.7166 26 16C26 16.2833 25.9042 16.5208 25.7125 16.7125C25.5208 16.9041 25.2833 17 25 17ZM25 20C24.7167 20 24.4792 19.9041 24.2875 19.7125C24.0958 19.5208 24 19.2833 24 19C24 18.7166 24.0958 18.4791 24.2875 18.2875C24.4792 18.0958 24.7167 18 25 18C25.2833 18 25.5208 18.0958 25.7125 18.2875C25.9042 18.4791 26 18.7166 26 19C26 19.2833 25.9042 19.5208 25.7125 19.7125C25.5208 19.9041 25.2833 20 25 20ZM14 28H23V26H13V27C13 27.2833 13.0958 27.5208 13.2875 27.7125C13.4792 27.9041 13.7167 28 14 28Z" fill="#444747"/>
</g>
</svg>
