<svg width="14" height="12" viewBox="0 0 14 12" fill="none" xmlns="http://www.w3.org/2000/svg">
<path d="M3.00004 8.66666H8.33337V8.29999C8.33337 7.8111 8.08893 7.41666 7.60004 7.11666C7.11115 6.81666 6.46671 6.66666 5.66671 6.66666C4.86671 6.66666 4.22226 6.81666 3.73337 7.11666C3.24449 7.41666 3.00004 7.8111 3.00004 8.29999V8.66666ZM5.66671 5.99999C6.03337 5.99999 6.34726 5.86943 6.60837 5.60832C6.86949 5.34721 7.00004 5.03332 7.00004 4.66666C7.00004 4.29999 6.86949 3.9861 6.60837 3.72499C6.34726 3.46388 6.03337 3.33332 5.66671 3.33332C5.30004 3.33332 4.98615 3.46388 4.72504 3.72499C4.46393 3.9861 4.33337 4.29999 4.33337 4.66666C4.33337 5.03332 4.46393 5.34721 4.72504 5.60832C4.98615 5.86943 5.30004 5.99999 5.66671 5.99999ZM1.66671 11.3333C1.30004 11.3333 0.986152 11.2028 0.725041 10.9417C0.46393 10.6805 0.333374 10.3667 0.333374 9.99999V1.99999C0.333374 1.63332 0.46393 1.31943 0.725041 1.05832C0.986152 0.797212 1.30004 0.666656 1.66671 0.666656H9.66671C10.0334 0.666656 10.3473 0.797212 10.6084 1.05832C10.8695 1.31943 11 1.63332 11 1.99999V4.99999L13.6667 2.33332V9.66666L11 6.99999V9.99999C11 10.3667 10.8695 10.6805 10.6084 10.9417C10.3473 11.2028 10.0334 11.3333 9.66671 11.3333H1.66671ZM1.66671 9.99999H9.66671V1.99999H1.66671V9.99999Z" fill="#444747"/>
</svg>
