<svg width="14" height="10" viewBox="0 0 14 10" fill="none" xmlns="http://www.w3.org/2000/svg">
<path d="M8.0835 9.39567C7.91683 9.229 7.83683 9.02761 7.8435 8.7915C7.85072 8.55539 7.93766 8.354 8.10433 8.18734L10.4585 5.83317H1.16683C0.930718 5.83317 0.732663 5.75317 0.572663 5.59317C0.413218 5.43373 0.333496 5.23595 0.333496 4.99984C0.333496 4.76373 0.413218 4.56567 0.572663 4.40567C0.732663 4.24623 0.930718 4.1665 1.16683 4.1665H10.4585L8.0835 1.7915C7.91683 1.62484 7.8335 1.42678 7.8335 1.19734C7.8335 0.968448 7.91683 0.77067 8.0835 0.604004C8.25016 0.437337 8.44822 0.354004 8.67766 0.354004C8.90655 0.354004 9.10433 0.437337 9.271 0.604004L13.0835 4.4165C13.1668 4.49984 13.226 4.59011 13.261 4.68734C13.2954 4.78456 13.3127 4.88873 13.3127 4.99984C13.3127 5.11095 13.2954 5.21511 13.261 5.31234C13.226 5.40956 13.1668 5.49984 13.0835 5.58317L9.25016 9.4165C9.09738 9.56928 8.90655 9.64567 8.67766 9.64567C8.44822 9.64567 8.25016 9.56234 8.0835 9.39567Z" fill="white"/>
</svg>
