<svg width="254" height="34" viewBox="0 0 254 34" fill="none" xmlns="http://www.w3.org/2000/svg">
<g clip-path="url(#clip0_152_566)">
<path d="M11.3662 30.0918C10.0504 30.1147 8.73617 29.9921 7.44738 29.726C6.41299 29.5101 5.41159 29.1588 4.46908 28.681C3.69102 28.2752 2.9778 27.7557 2.35292 27.1396C1.78729 26.5741 1.30363 25.9321 0.916016 25.2324L1.46465 24.9712C2.08585 25.854 2.85478 26.6229 3.73757 27.2441C4.52096 27.8241 5.40758 28.2497 6.35011 28.4981C7.33266 28.8022 8.35246 28.9692 9.38067 28.9945C10.7 29.0502 12.0121 28.7716 13.195 28.1846C14.1572 27.6691 14.9338 26.8651 15.4157 25.8856C15.9256 24.8369 16.1764 23.6811 16.1472 22.5154C16.2514 21.5706 16.106 20.615 15.7255 19.744C15.345 18.873 14.7427 18.117 13.9788 17.5516C11.9797 16.5109 9.69788 16.1443 7.47351 16.5065L7.65639 15.775C9.26711 15.6886 10.8583 15.3809 12.3851 14.8606C13.48 14.4886 14.4063 13.7382 14.9976 12.7445C15.568 11.5939 15.8377 10.3176 15.7814 9.03465C15.8267 8.26565 15.7183 7.49533 15.4627 6.76866C15.207 6.04199 14.8091 5.37354 14.2923 4.80233C13.7217 4.27507 13.0502 3.86895 12.3182 3.60851C11.5863 3.34807 10.8092 3.23871 10.0338 3.28705C8.96044 3.2841 7.89342 3.45165 6.87262 3.78343C6.03156 4.03411 5.24965 4.45173 4.57358 5.01133C5.56144 5.7347 6.4877 6.53863 7.34288 7.41487C7.80474 7.86481 8.0839 8.46965 8.12665 9.11303C8.13469 9.50999 8.0055 9.89756 7.76089 10.2103C7.48252 10.5881 7.10174 10.8782 6.66362 11.0463C6.0738 11.2809 5.44337 11.3963 4.80871 11.3859C4.08599 11.4134 3.36777 11.2608 2.71867 10.9418C2.24054 10.6999 1.84836 10.3169 1.59528 9.84454C1.39309 9.42922 1.28599 8.97405 1.28177 8.51214C1.29658 7.94226 1.42427 7.38098 1.65746 6.86078C1.89066 6.34059 2.22471 5.87181 2.6403 5.48159C3.72143 4.41742 5.03667 3.62112 6.48074 3.15642C8.44428 2.56372 10.4921 2.29891 12.5419 2.37266C14.3692 2.34419 16.1909 2.58181 17.9498 3.07804C19.3354 3.45024 20.6033 4.16958 21.6335 5.16808C22.0856 5.63018 22.4409 6.17782 22.6786 6.77895C22.9164 7.38008 23.0318 8.0226 23.0182 8.6689C23.0371 9.8143 22.6791 10.9342 21.9993 11.8562C21.2596 12.8302 20.3023 13.6175 19.2038 14.1552C17.8762 14.7954 16.4711 15.2609 15.0238 15.5399V15.6966C16.6795 15.8263 18.3076 16.1959 19.857 16.7939C21.0623 17.2248 22.1341 17.9633 22.9659 18.9362C23.7132 19.8975 24.1012 21.0895 24.0632 22.3064C24.0937 23.5826 23.6985 24.8327 22.9398 25.8595C22.1646 26.867 21.1738 27.6883 20.0399 28.263C18.7655 28.9268 17.4014 29.4021 15.9904 29.6738C14.4661 29.9622 12.9175 30.1022 11.3662 30.0918Z" fill="#063231"/>
<path d="M30.6465 29.5953V29.1511H32.7888C33.0013 29.167 33.2147 29.1354 33.4136 29.0585C33.6124 28.9817 33.7916 28.8616 33.9383 28.707C34.1713 28.2285 34.2706 27.6959 34.2257 27.1656V5.03731C34.2703 4.59555 34.1595 4.15206 33.9122 3.78329C33.731 3.63514 33.5223 3.52426 33.2981 3.45701C33.074 3.38976 32.8387 3.36746 32.6059 3.39141H30.6465V2.8689H45.329V3.31303H43.3435C43.136 3.3076 42.9295 3.34414 42.7364 3.42046C42.5434 3.49678 42.3678 3.6113 42.2201 3.75716C41.965 4.17123 41.8548 4.65828 41.9066 5.14181V15.592H53.7675V5.14181C53.7925 4.72483 53.7021 4.30901 53.5063 3.94004C53.3234 3.67879 52.9054 3.52203 52.2261 3.49591H50.3451V2.8689H65.0537V3.31303H62.9376C62.7247 3.29329 62.5101 3.32311 62.3107 3.40016C62.1112 3.47722 61.9324 3.59941 61.788 3.75716C61.5439 4.17506 61.443 4.66128 61.5007 5.14181V27.1395C61.4688 27.5989 61.5589 28.0585 61.7619 28.4719C61.9187 28.7592 62.3367 28.916 63.0159 28.9682H65.0537V29.4124H50.3973V28.9682H52.3829C52.5968 28.9755 52.8099 28.9374 53.008 28.8563C53.2062 28.7752 53.3849 28.6531 53.5324 28.498C53.7697 28.0303 53.8694 27.5048 53.8198 26.9827V16.2451H41.9588V27.2178C41.9031 27.7099 42.0134 28.2065 42.2723 28.6286C42.6132 28.9014 43.0375 29.049 43.4741 29.0466H45.3813V29.4908L30.6465 29.5953Z" fill="#063231"/>
<path d="M87.3927 30.0917C84.5109 30.1583 81.6492 29.5967 79.0064 28.4458C76.7618 27.4537 74.8552 25.8285 73.52 23.7693C72.2083 21.6359 71.5456 19.1668 71.6129 16.6632C71.5138 13.9148 72.2028 11.1953 73.5984 8.82557C74.9595 6.67751 76.9476 4.99945 79.2938 4.01848C82.047 2.86854 85.0105 2.30787 87.9935 2.37258C90.7823 2.31393 93.5518 2.84823 96.1186 3.94011C98.3077 4.87602 100.177 6.42815 101.5 8.40756C102.84 10.5588 103.513 13.0588 103.434 15.5921C103.456 17.6105 103.093 19.6146 102.363 21.4964C101.685 23.2497 100.612 24.8232 99.2275 26.0945C97.7725 27.4092 96.0534 28.3979 94.1853 28.9944C92.0001 29.7446 89.7028 30.1157 87.3927 30.0917ZM88.1503 29.4908C89.2479 29.5107 90.3363 29.2877 91.3376 28.8377C92.271 28.3771 93.0379 27.6375 93.5321 26.7215C94.1832 25.481 94.6162 24.1377 94.8123 22.7504C95.1249 20.6844 95.2647 18.5958 95.2303 16.5065C95.2599 14.3698 95.0849 12.2352 94.7078 10.1318C94.4406 8.65564 93.9096 7.23966 93.1403 5.95177C92.5153 4.9445 91.6063 4.1446 90.5277 3.65273C89.4688 3.13986 88.308 2.87198 87.1314 2.86896C86.0363 2.84672 84.9492 3.06057 83.9441 3.49598C82.9696 3.95521 82.1518 4.6912 81.5928 5.61214C80.8842 6.8411 80.3978 8.18536 80.1559 9.58321C79.827 11.6825 79.6958 13.8079 79.764 15.9317C79.724 18.0798 79.9167 20.2259 80.3388 22.3324C80.6461 23.7767 81.2221 25.1504 82.0369 26.3819C82.6696 27.389 83.5757 28.1955 84.6495 28.7071C85.7401 29.2355 86.9385 29.5037 88.1503 29.4908Z" fill="#063231"/>
<path d="M120.389 33.6186L136.769 0.256348H138.128L121.773 33.6186H120.389Z" fill="#063231"/>
<path d="M155.5 29.5951L155.056 26.1204C157.668 24.161 159.758 22.4367 161.456 20.8953C162.872 19.641 164.224 18.3156 165.506 16.9242C166.378 15.9546 167.156 14.905 167.831 13.7892C168.314 12.9753 168.674 12.0951 168.902 11.1766C169.089 10.3625 169.186 9.53011 169.189 8.69473C169.258 7.27916 168.792 5.88953 167.883 4.80203C167.346 4.28569 166.704 3.89033 166.001 3.6425C165.298 3.39466 164.55 3.30009 163.808 3.36513C162.744 3.35203 161.685 3.51083 160.672 3.83539C159.837 4.10726 159.052 4.51315 158.347 5.03716C159.183 5.71642 159.863 6.26506 160.385 6.73531C160.818 7.09501 161.204 7.50752 161.535 7.96321C161.776 8.29757 161.904 8.70036 161.9 9.11273C161.894 9.42504 161.816 9.73164 161.671 10.0083C161.525 10.2849 161.318 10.5239 161.064 10.7064C160.368 11.2518 159.49 11.5132 158.609 11.4379C157.674 11.4845 156.751 11.2077 155.996 10.6541C155.68 10.3921 155.43 10.0591 155.267 9.68237C155.103 9.30562 155.031 8.89565 155.056 8.48572C155.079 7.35136 155.548 6.27183 156.362 5.48129C157.476 4.43811 158.818 3.66884 160.281 3.2345C162.127 2.6336 164.06 2.34229 166.002 2.37236C168.049 2.3285 170.089 2.62876 172.037 3.26063C173.43 3.72992 174.674 4.55912 175.642 5.66417C176.421 6.60423 176.847 7.78738 176.844 9.00823C176.864 9.89717 176.722 10.7823 176.426 11.6208C176.074 12.5365 175.541 13.3718 174.859 14.0766C173.851 15.1427 172.74 16.1055 171.541 16.9504C170.104 17.9954 168.249 19.1972 165.976 20.6079C163.703 22.0187 160.908 23.534 157.668 25.415H170.156C170.974 25.4632 171.794 25.4632 172.612 25.415C173.14 25.3662 173.649 25.1964 174.101 24.9186C174.555 24.6091 174.931 24.1975 175.198 23.7169C175.61 22.9963 175.985 22.2551 176.322 21.4962H177.079L175.956 29.5951H155.5Z" fill="#063231"/>
<path d="M199.469 30.0915C196.587 30.1581 193.726 29.5965 191.083 28.4456C188.819 27.462 186.893 25.8361 185.544 23.7691C184.212 21.6434 183.539 19.1707 183.611 16.663C183.512 13.9146 184.201 11.1951 185.596 8.82536C186.956 6.66345 188.943 4.9681 191.292 3.96602C194.057 2.83112 197.03 2.28823 200.018 2.37237C202.798 2.31344 205.559 2.84782 208.117 3.9399C210.313 4.87541 212.191 6.42709 213.525 8.40735C214.857 10.5608 215.521 13.0611 215.432 15.5919C215.454 17.6103 215.091 19.6144 214.361 21.4962C213.683 23.2431 212.62 24.8148 211.252 26.0943C209.787 27.4096 208.059 28.3981 206.183 28.9942C204.023 29.7366 201.753 30.1076 199.469 30.0915ZM200.201 29.4906C201.298 29.5105 202.387 29.2875 203.388 28.8375C204.334 28.3857 205.112 27.6446 205.609 26.7213C206.25 25.4789 206.674 24.1358 206.863 22.7502C207.184 20.6849 207.333 18.5963 207.307 16.5063C207.336 14.3696 207.161 12.235 206.784 10.1316C206.517 8.65543 205.986 7.23945 205.217 5.95156C204.587 4.94829 203.679 4.14958 202.604 3.65252C201.544 3.14382 200.384 2.87616 199.208 2.86875C198.113 2.85288 197.028 3.06647 196.021 3.49576C195.054 3.95664 194.245 4.69284 193.695 5.61193C192.964 6.83038 192.476 8.17892 192.258 9.583C191.878 11.6768 191.712 13.804 191.762 15.9315C191.722 18.0796 191.915 20.2257 192.337 22.3322C192.644 23.7765 193.22 25.1502 194.035 26.3817C194.668 27.3888 195.574 28.1953 196.648 28.7069C197.738 29.2353 198.937 29.5035 200.148 29.4906H200.201Z" fill="#063231"/>
<path d="M237.848 30.0915C234.966 30.1582 232.104 29.5965 229.461 28.4456C227.217 27.4535 225.31 25.8283 223.975 23.7692C222.663 21.6357 222.001 19.1666 222.068 16.663C221.969 13.9146 222.658 11.1952 224.053 8.8254C225.406 6.65793 227.395 4.9609 229.749 3.96606C232.505 2.83101 235.469 2.28806 238.449 2.37241C241.229 2.31025 243.991 2.84477 246.548 3.93994C248.748 4.86893 250.628 6.42201 251.955 8.40739C253.296 10.5587 253.968 13.0587 253.889 15.5919C253.911 17.6103 253.548 19.6144 252.818 21.4963C252.14 23.2496 251.067 24.823 249.683 26.0943C248.228 27.409 246.508 28.3977 244.64 28.9943C242.455 29.7444 240.158 30.1155 237.848 30.0915ZM238.579 29.4907C239.685 29.5127 240.783 29.2897 241.793 28.8375C242.726 28.3769 243.493 27.6373 243.987 26.7214C244.638 25.4808 245.071 24.1375 245.267 22.7503C245.567 20.6828 245.707 18.5953 245.685 16.5063C245.72 14.3683 245.537 12.2323 245.137 10.1317C244.889 8.65411 244.366 7.23617 243.595 5.9516C242.97 4.94433 242.061 4.14443 240.983 3.65256C239.948 3.15101 238.815 2.88343 237.665 2.86879C236.57 2.84655 235.483 3.0604 234.478 3.4958C233.494 3.9413 232.673 4.68058 232.126 5.61197C231.452 6.88183 231.009 8.26205 230.82 9.68754C230.427 11.7459 230.226 13.8361 230.219 15.9315C230.195 18.0457 230.397 20.1563 230.82 22.2278C231.099 23.7047 231.657 25.1147 232.466 26.3817C233.111 27.3781 234.014 28.1815 235.078 28.7069C236.193 29.2473 237.419 29.5159 238.658 29.4907H238.579Z" fill="#063231"/>
</g>
<defs>
<clipPath id="clip0_152_566">
<rect width="252.973" height="33.3622" fill="white" transform="translate(0.916016 0.256348)"/>
</clipPath>
</defs>
</svg>
