<svg width="253" height="34" viewBox="0 0 253 34" fill="none" xmlns="http://www.w3.org/2000/svg">
<path d="M10.4502 30.154C9.13443 30.177 7.82016 30.0543 6.53137 29.7883C5.49697 29.5724 4.49557 29.221 3.55306 28.7433C2.77501 28.3375 2.06178 27.818 1.4369 27.2019C0.871273 26.6363 0.387611 25.9944 0 25.2947L0.548635 25.0334C1.16983 25.9162 1.93876 26.6852 2.82155 27.3064C3.60494 27.8864 4.49157 28.3119 5.4341 28.5604C6.41665 28.8644 7.43645 29.0315 8.46465 29.0568C9.78402 29.1124 11.0961 28.8339 12.279 28.2469C13.2412 27.7313 14.0177 26.9273 14.4996 25.9478C15.0095 24.8991 15.2604 23.7434 15.2312 22.5777C15.3354 21.6329 15.19 20.6773 14.8095 19.8063C14.429 18.9353 13.8267 18.1793 13.0627 17.6138C11.0637 16.5731 8.78186 16.2066 6.55749 16.5688L6.74037 15.8373C8.35109 15.7508 9.94225 15.4432 11.4691 14.9229C12.564 14.5508 13.4903 13.8005 14.0816 12.8067C14.652 11.6562 14.9217 10.3799 14.8654 9.09691C14.9107 8.32791 14.8023 7.55758 14.5466 6.83092C14.291 6.10425 13.8931 5.4358 13.3762 4.86458C12.8057 4.33732 12.1341 3.9312 11.4022 3.67076C10.6703 3.41032 9.89317 3.30097 9.11779 3.3493C8.04443 3.34635 6.97741 3.5139 5.95661 3.84569C5.11555 4.09637 4.33363 4.51398 3.65757 5.07359C4.64542 5.79696 5.57169 6.60089 6.42687 7.47713C6.88873 7.92707 7.16789 8.53191 7.21063 9.17529C7.21868 9.57224 7.08949 9.95982 6.84487 10.2726C6.5665 10.6503 6.18572 10.9405 5.7476 11.1086C5.15779 11.3431 4.52736 11.4586 3.8927 11.4482C3.16997 11.4757 2.45176 11.3231 1.80266 11.0041C1.32453 10.7622 0.932341 10.3791 0.679262 9.9068C0.477074 9.49147 0.369976 9.03631 0.365757 8.5744C0.380563 8.00452 0.508257 7.44323 0.741449 6.92304C0.97464 6.40284 1.3087 5.93407 1.72428 5.54384C2.80542 4.47968 4.12065 3.68338 5.56473 3.21868C7.52827 2.62598 9.57612 2.36117 11.6258 2.43491C13.4532 2.40645 15.2749 2.64407 17.0338 3.1403C18.4194 3.5125 19.6872 4.23184 20.7175 5.23034C21.1696 5.69243 21.5249 6.24008 21.7626 6.84121C22.0004 7.44233 22.1158 8.08486 22.1022 8.73115C22.1211 9.87655 21.7631 10.9964 21.0833 11.9185C20.3436 12.8924 19.3862 13.6798 18.2878 14.2175C16.9601 14.8577 15.5551 15.3231 14.1078 15.6022V15.7589C15.7635 15.8885 17.3916 16.2582 18.941 16.8562C20.1463 17.287 21.2181 18.0255 22.0499 18.9985C22.7971 19.9597 23.1852 21.1517 23.1472 22.3686C23.1777 23.6449 22.7824 24.895 22.0238 25.9217C21.2486 26.9293 20.2578 27.7505 19.1238 28.3253C17.8495 28.9891 16.4854 29.4643 15.0744 29.736C13.5501 30.0244 12.0015 30.1644 10.4502 30.154Z" fill="white"/>
<path d="M29.7305 29.6575V29.2134H31.8728C32.0853 29.2292 32.2987 29.1976 32.4975 29.1208C32.6964 29.044 32.8756 28.9239 33.0223 28.7692C33.2553 28.2907 33.3546 27.7582 33.3097 27.2278V5.09957C33.3543 4.65781 33.2434 4.21431 32.9962 3.84554C32.815 3.6974 32.6063 3.58651 32.3821 3.51926C32.1579 3.45201 31.9227 3.42972 31.6899 3.45366H29.7305V2.93115H44.413V3.37529H42.4274C42.2199 3.36986 42.0135 3.4064 41.8204 3.48272C41.6274 3.55904 41.4518 3.67356 41.3041 3.81942C41.049 4.23348 40.9387 4.72053 40.9905 5.20407V15.6543H52.8515V5.20407C52.8765 4.78708 52.7861 4.37127 52.5903 4.0023C52.4074 3.74104 51.9894 3.58429 51.3101 3.55816H49.4291V2.93115H64.1377V3.37529H62.0216C61.8087 3.35554 61.5941 3.38537 61.3947 3.46242C61.1952 3.53947 61.0163 3.66167 60.872 3.81942C60.6279 4.23732 60.527 4.72353 60.5847 5.20407V27.2017C60.5528 27.6611 60.6429 28.1208 60.8459 28.5341C61.0027 28.8215 61.4207 28.9783 62.0999 29.0305H64.1377V29.4746H49.4813V29.0305H51.4669C51.6808 29.0378 51.8939 28.9996 52.092 28.9186C52.2902 28.8375 52.4689 28.7154 52.6164 28.5602C52.8537 28.0926 52.9534 27.5671 52.9038 27.045V16.3074H41.0428V27.2801C40.9871 27.7722 41.0974 28.2687 41.3563 28.6909C41.6972 28.9637 42.1214 29.1112 42.5581 29.1089H44.4652V29.553L29.7305 29.6575Z" fill="white"/>
<path d="M86.4766 30.1543C83.5949 30.2209 80.7332 29.6593 78.0904 28.5084C75.8457 27.5163 73.9391 25.8911 72.604 23.832C71.2923 21.6985 70.6296 19.2294 70.6969 16.7258C70.5978 13.9774 71.2867 11.258 72.6824 8.88819C74.0435 6.74014 76.0316 5.06208 78.3777 4.08111C81.131 2.93116 84.0945 2.3705 87.0775 2.4352C89.8663 2.37655 92.6357 2.91085 95.2025 4.00273C97.3917 4.93864 99.2615 6.49078 100.584 8.47019C101.924 10.6214 102.597 13.1215 102.518 15.6547C102.54 17.6731 102.177 19.6772 101.447 21.559C100.769 23.3124 99.6961 24.8858 98.3115 26.1571C96.8564 27.4718 95.1373 28.4605 93.2693 29.0571C91.0841 29.8072 88.7868 30.1783 86.4766 30.1543ZM87.2343 29.5534C88.3319 29.5734 89.4203 29.3503 90.4216 28.9003C91.3549 28.4397 92.1219 27.7001 92.6161 26.7841C93.2672 25.5436 93.7002 24.2003 93.8963 22.8131C94.2089 20.747 94.3487 18.6584 94.3143 16.5691C94.3439 14.4324 94.1689 12.2978 93.7918 10.1945C93.5246 8.71827 92.9936 7.30229 92.2242 6.01439C91.5992 5.00712 90.6903 4.20722 89.6117 3.71535C88.5528 3.20248 87.392 2.9346 86.2154 2.93159C85.1203 2.90934 84.0332 3.12319 83.0281 3.5586C82.0535 4.01783 81.2358 4.75382 80.6768 5.67476C79.9682 6.90372 79.4818 8.24799 79.2399 9.64583C78.911 11.7451 78.7798 13.8706 78.848 15.9943C78.808 18.1424 79.0007 20.2885 79.4228 22.3951C79.7301 23.8394 80.3061 25.213 81.1209 26.4445C81.7536 27.4517 82.6597 28.2581 83.7335 28.7697C84.8241 29.2981 86.0224 29.5664 87.2343 29.5534Z" fill="white"/>
<path d="M119.473 33.6811L135.853 0.318848H137.212L120.857 33.6811H119.473Z" fill="white"/>
<path d="M154.584 29.6576L154.139 26.1829C156.752 24.2235 158.842 22.4992 160.54 20.9578C161.956 19.7035 163.308 18.3781 164.59 16.9867C165.462 16.0171 166.24 14.9675 166.915 13.8517C167.398 13.0378 167.758 12.1576 167.986 11.2391C168.173 10.425 168.27 9.59261 168.273 8.75723C168.342 7.34166 167.876 5.95203 166.967 4.86453C166.43 4.34819 165.788 3.95283 165.085 3.705C164.382 3.45716 163.634 3.36259 162.892 3.42763C161.828 3.41453 160.769 3.57333 159.756 3.89789C158.921 4.16976 158.136 4.57565 157.431 5.09966C158.267 5.77892 158.947 6.32756 159.469 6.79781C159.902 7.15751 160.288 7.57002 160.619 8.02571C160.86 8.36007 160.988 8.76286 160.984 9.17523C160.978 9.48754 160.9 9.79414 160.755 10.0708C160.609 10.3474 160.402 10.5864 160.148 10.7689C159.452 11.3143 158.574 11.5757 157.693 11.5004C156.758 11.547 155.835 11.2702 155.08 10.7166C154.764 10.4546 154.514 10.1216 154.351 9.74487C154.187 9.36812 154.115 8.95815 154.139 8.54822C154.163 7.41386 154.632 6.33433 155.446 5.54379C156.56 4.50061 157.902 3.73134 159.365 3.297C161.211 2.6961 163.144 2.40479 165.086 2.43486C167.133 2.391 169.173 2.69126 171.121 3.32313C172.514 3.79242 173.758 4.62162 174.726 5.72667C175.505 6.66673 175.931 7.84988 175.928 9.07073C175.948 9.95967 175.806 10.8448 175.51 11.6833C175.158 12.599 174.625 13.4343 173.943 14.1391C172.935 15.2052 171.824 16.168 170.625 17.0129C169.188 18.0579 167.333 19.2597 165.06 20.6704C162.787 22.0812 159.992 23.5965 156.752 25.4775H169.24C170.058 25.5257 170.878 25.5257 171.696 25.4775C172.224 25.4287 172.733 25.2589 173.185 24.9811C173.639 24.6716 174.015 24.26 174.282 23.7794C174.694 23.0588 175.069 22.3176 175.406 21.5587H176.163L175.04 29.6576H154.584Z" fill="white"/>
<path d="M198.553 30.1539C195.671 30.2205 192.81 29.6588 190.167 28.508C187.903 27.5244 185.977 25.8985 184.628 23.8315C183.296 21.7058 182.623 19.2331 182.695 16.7254C182.596 13.977 183.285 11.2575 184.68 8.88774C186.04 6.72583 188.027 5.03048 190.376 4.0284C193.141 2.89349 196.114 2.35061 199.102 2.43475C201.882 2.37582 204.643 2.9102 207.201 4.00228C209.397 4.93779 211.275 6.48947 212.609 8.46973C213.941 10.6232 214.605 13.1235 214.516 15.6542C214.538 17.6726 214.175 19.6768 213.445 21.5586C212.767 23.3055 211.704 24.8772 210.336 26.1567C208.871 27.472 207.143 28.4605 205.267 29.0566C203.107 29.7989 200.837 30.1699 198.553 30.1539ZM199.285 29.553C200.382 29.5729 201.471 29.3499 202.472 28.8999C203.418 28.4481 204.196 27.707 204.693 26.7837C205.334 25.5413 205.758 24.1982 205.947 22.8126C206.268 20.7473 206.417 18.6587 206.391 16.5686C206.42 14.432 206.245 12.2974 205.868 10.194C205.601 8.71781 205.07 7.30183 204.301 6.01394C203.671 5.01067 202.763 4.21196 201.688 3.7149C200.628 3.2062 199.468 2.93854 198.292 2.93113C197.197 2.91526 196.111 3.12885 195.105 3.55814C194.138 4.01901 193.329 4.75522 192.779 5.67431C192.048 6.89276 191.56 8.2413 191.342 9.64538C190.962 11.7392 190.796 13.8663 190.846 15.9939C190.806 18.1419 190.999 20.288 191.421 22.3946C191.728 23.8389 192.304 25.2126 193.119 26.4441C193.752 27.4512 194.658 28.2577 195.732 28.7692C196.822 29.2976 198.02 29.5659 199.232 29.553H199.285Z" fill="white"/>
<path d="M236.932 30.1539C234.05 30.2205 231.188 29.6589 228.545 28.508C226.301 27.5159 224.394 25.8907 223.059 23.8316C221.747 21.6981 221.085 19.229 221.152 16.7254C221.053 13.977 221.742 11.2576 223.137 8.88778C224.49 6.7203 226.479 5.02328 228.833 4.02844C231.589 2.89339 234.553 2.35043 237.533 2.43479C240.313 2.37263 243.075 2.90714 245.631 4.00232C247.832 4.93131 249.712 6.48438 251.039 8.46977C252.379 10.621 253.052 13.121 252.973 15.6543C252.995 17.6727 252.632 19.6768 251.902 21.5586C251.224 23.3119 250.151 24.8854 248.767 26.1567C247.312 27.4714 245.592 28.4601 243.724 29.0566C241.539 29.8068 239.242 30.1779 236.932 30.1539ZM237.663 29.553C238.769 29.5751 239.867 29.352 240.877 28.8999C241.81 28.4393 242.577 27.6997 243.071 26.7837C243.722 25.5432 244.155 24.1999 244.351 22.8127C244.651 20.7452 244.791 18.6576 244.769 16.5687C244.804 14.4306 244.621 12.2947 244.221 10.1941C243.973 8.71648 243.45 7.29855 242.679 6.01398C242.054 5.00671 241.145 4.2068 240.067 3.71494C239.032 3.21339 237.899 2.94581 236.749 2.93117C235.654 2.90893 234.567 3.12278 233.562 3.55818C232.578 4.00368 231.757 4.74295 231.21 5.67435C230.536 6.94421 230.093 8.32443 229.904 9.74992C229.511 11.8083 229.31 13.8985 229.303 15.9939C229.279 18.108 229.481 20.2187 229.904 22.2901C230.183 23.7671 230.741 25.1771 231.55 26.4441C232.195 27.4405 233.098 28.2439 234.162 28.7693C235.277 29.3096 236.503 29.5782 237.742 29.553H237.663Z" fill="white"/>
</svg>
